<svg xmlns="http://www.w3.org/2000/svg" width="601.057" height="123" viewBox="0 0 601.057 123"><g transform="translate(10613 4530)"><rect width="601" height="123" transform="translate(-10613 -4530)" fill="#fff" opacity="0"/><path d="M125.686,51.781c10.963-10.729,25.4-22.033,26.778-27.753L192.914,4.287C177.179,24.178,154.188,39.8,125.686,51.781" transform="translate(-10204.857 -4519.353)" fill="#6b032c"/><path d="M218.7,14.937c-2.236,3.438-10.221,11.827-16.09,16.78-11.7,6.476-23.88,5.114-32.254,3.895C142.122,31.5,122.868,8.479,115.3,0,136.945,16.707,181.8,31.195,218.7,14.937" transform="translate(-10230.646 -4530)" fill="#e92f1a"/><path d="M69.562,20.537a33.015,33.015,0,0,0-16.519-4.212A33.08,33.08,0,0,0,36.57,20.537,31.427,31.427,0,0,0,24.674,32.2,32.458,32.458,0,0,0,20.281,49a32.635,32.635,0,0,0,4.393,16.885,31.427,31.427,0,0,0,11.9,11.666,33.08,33.08,0,0,0,16.474,4.212,33.077,33.077,0,0,0,16.47-4.212A31.122,31.122,0,0,0,81.368,65.881,32.942,32.942,0,0,0,85.712,49,32.763,32.763,0,0,0,81.368,32.2,31.215,31.215,0,0,0,69.562,20.537m.5,39.716A17.875,17.875,0,0,1,63.2,67.71a19.528,19.528,0,0,1-10.158,2.609,19.755,19.755,0,0,1-10.2-2.609,17.761,17.761,0,0,1-6.911-7.458A24.461,24.461,0,0,1,33.459,49a24.178,24.178,0,0,1,2.47-11.21,17.525,17.525,0,0,1,6.911-7.368,20.04,20.04,0,0,1,10.2-2.564A19.808,19.808,0,0,1,63.2,30.419a17.634,17.634,0,0,1,6.863,7.368A24.178,24.178,0,0,1,72.534,49a24.461,24.461,0,0,1-2.47,11.255" transform="translate(-10466.632 -4489.457)" fill="#081022"/><path d="M56.765,16.591H45.241v0H42.4l1.543,2.773h.007V80.468h33.86V70.31H56.765Z" transform="translate(-10411.694 -4488.805)" fill="#081022"/><path d="M69.871,16.588H55.512l1.543,2.773h0v61.1h33.86V70.308H69.871Z" transform="translate(-10379.136 -4488.803)" fill="#081022"/><path d="M91.2,16.562H88.359L89.9,19.335h.007L67.935,80.53H81.388L85.6,68.358h25.44l4.208,12.171h13.544l-22.97-63.968ZM89.076,58.11l9.242-26.722L107.56,58.11Z" transform="translate(-10348.282 -4488.868)" fill="#081022"/><path d="M133.4,47.567a19.028,19.028,0,0,0,3.658-11.395,19.224,19.224,0,0,0-2.606-9.928,18.207,18.207,0,0,0-7.824-7.047A28.017,28.017,0,0,0,114,16.588H88.483l1.54,2.769V80.465h12.812V55.575h6.04l14.094,24.89H137.8l-15.282-25.9q7.227-1.918,10.889-7m-19.86-1.6H102.835V27.206h10.708q5.215,0,7.779,2.425a8.937,8.937,0,0,1,2.564,6.817,9.377,9.377,0,0,1-2.564,7q-2.566,2.513-7.779,2.515" transform="translate(-10297.251 -4488.804)" fill="#081022"/><path d="M144.987,26.995V16.562H106.369l1.543,2.773h.01V80.53h37.065V70.1H120.735V53.167h21.507V43.009H120.735V26.995Z" transform="translate(-10252.832 -4488.869)" fill="#081022"/><path d="M49.107,16.588H46.268l1.547,2.773h.01L31.3,67.377,13.728,16.588H0L23.43,80.465H38.987L62.414,16.588Z" transform="translate(-10517.001 -4488.804)" fill="#081022"/></g></svg>